<?xml version="1.0" encoding="utf-8"?>
<!-- Generator: Adobe Illustrator 21.1.0, SVG Export Plug-In . SVG Version: 6.00 Build 0)  -->
<svg version="1.1" id="Layer_1" xmlns="http://www.w3.org/2000/svg" xmlns:xlink="http://www.w3.org/1999/xlink" x="0px" y="0px"
	 viewBox="0 0 300 300" style="enable-background:new 0 0 300 300;" xml:space="preserve">
<style type="text/css">
	.st0{fill:#FFFFFF;}
</style>
<g>
	<g>
		<circle cx="149.9" cy="150" r="144"/>
		<path class="st0" d="M70.7,277.3c44.1,28.3,101.2,29.2,147.6,6.2c46-22.8,75.8-69.7,81-120.2c5.3-51.8-19.1-102.2-59.8-133.5
			C194.5-4.9,131.8-8.4,81.6,16.5C31.4,41.4,0.6,94.6,0,150C0.6,201.9,26.9,249.2,70.7,277.3z M100.6,21
			c53.3-20.8,114.1-4.6,152.2,37c38.9,42.4,45.2,106.7,18.8,157c-26.4,50.4-82.4,77.7-138.3,72c-69.1-7.1-120.7-69-121.4-137
			C12.6,93,47.4,41.8,100.6,21z"/>
	</g>
	<ellipse class="st0" cx="204.6" cy="195.7" rx="13.7" ry="34.3"/>
	<ellipse class="st0" cx="150.2" cy="195.7" rx="13.7" ry="34.3"/>
	<ellipse class="st0" cx="95.3" cy="195.7" rx="13.7" ry="34.3"/>
	<path class="st0" d="M47.9,119.9c9.1-2.5,21.5-1.6,25.5,8.4c2.8,7.1,14.4,4,11.5-3.2c-2.1-5.2-5.6-8.9-9.5-11.8
		c8.5-32.9,41.8-50.3,73.7-51.1c0.4,0,0.5-0.3,0.9-0.4c0.4,0.1,0.5,0.4,0.9,0.4c31.8,0.8,65.2,18.2,73.7,51.1
		c-3.9,2.9-7.4,6.6-9.5,11.8c-2.9,7.2,8.7,10.2,11.5,3.2c4-9.9,16.4-10.8,25.5-8.4c7.4,2,10.6-9.5,3.2-11.5
		c-6.7-1.8-13.5-1.6-19.8-0.1c-10.6-36.9-48.1-57.1-84.5-58c-0.4,0-0.5,0.3-0.9,0.4c-0.4-0.1-0.5-0.4-0.9-0.4
		c-36.4,0.9-73.9,21.1-84.5,58c-6.3-1.5-13.1-1.7-19.8,0.1C37.3,110.4,40.4,121.9,47.9,119.9z"/>
</g>
</svg>
